<?xml version="1.0" encoding="UTF-8"?>
<svg version="1.1" xmlns="http://www.w3.org/2000/svg" width="265" height="134">
<path d="M0 0 C87.45 0 174.9 0 265 0 C265 44.22 265 88.44 265 134 C177.55 134 90.1 134 0 134 C0 89.78 0 45.56 0 0 Z " fill="#38635D" transform="translate(0,0)"/>
<path d="M0 0 C7.39732867 -0.02314716 14.79464955 -0.04092723 22.19200706 -0.05181217 C25.62671562 -0.05703579 29.06139943 -0.06412401 32.49609375 -0.07543945 C36.44270535 -0.08836035 40.38930684 -0.09323252 44.3359375 -0.09765625 C45.57242035 -0.10281754 46.8089032 -0.10797882 48.08285522 -0.11329651 C49.22388702 -0.11337204 50.36491882 -0.11344757 51.54052734 -0.11352539 C53.05276382 -0.11685631 53.05276382 -0.11685631 54.59555054 -0.12025452 C57 0 57 0 59 1 C59 20.14 59 39.28 59 59 C39.53 59 20.06 59 0 59 C-0.58807338 50.76697268 -1.15267604 42.76445293 -1.1328125 34.55078125 C-1.13424759 33.19281685 -1.13424759 33.19281685 -1.13571167 31.80741882 C-1.13638317 29.92638071 -1.13460216 28.04534012 -1.13037109 26.16430664 C-1.12493767 23.27940795 -1.13038635 20.39466004 -1.13671875 17.50976562 C-1.13605914 15.66927049 -1.1347804 13.82877545 -1.1328125 11.98828125 C-1.13483673 11.12898514 -1.13686096 10.26968903 -1.13894653 9.38435364 C-1.12557063 6.00890323 -1.07479176 3.22437528 0 0 Z " fill="#21CC93" transform="translate(23,38)"/>
<path d="M0 0 C7.39733291 -0.0225719 14.79464707 -0.04092722 22.19200706 -0.05181217 C25.62671562 -0.05703579 29.06139943 -0.06412401 32.49609375 -0.07543945 C36.44270535 -0.08836035 40.38930684 -0.09323252 44.3359375 -0.09765625 C45.57242035 -0.10281754 46.8089032 -0.10797882 48.08285522 -0.11329651 C49.22388702 -0.11337204 50.36491882 -0.11344757 51.54052734 -0.11352539 C53.05276382 -0.11685631 53.05276382 -0.11685631 54.59555054 -0.12025452 C57 0 57 0 59 1 C59.21739123 20.00965492 58.56233275 39.00118638 58 58 C52.39 58 46.78 58 41 58 C41 57.67 41 57.34 41 57 C46.28 57 51.56 57 57 57 C57 42.81 57 28.62 57 14 C56.01 14.99 55.02 15.98 54 17 C53.01 17 52.02 17 51 17 C51 17.99 51 18.98 51 20 C50.01 20 49.02 20 48 20 C48.495 21.485 48.495 21.485 49 23 C45.90521121 24.03159626 44.47368607 23.97482862 41.3125 23.5625 C40.50425781 23.46066406 39.69601563 23.35882813 38.86328125 23.25390625 C38.24839844 23.17011719 37.63351563 23.08632813 37 23 C37.05607422 24.0828125 37.05607422 24.0828125 37.11328125 25.1875 C36.99157596 28.20914849 36.34706769 30.22051191 35.1875 33 C34.8265625 33.87011719 34.465625 34.74023438 34.09375 35.63671875 C33 38 33 38 31.1875 40.8125 C29.72917556 43.00219525 29.72917556 43.00219525 30.3125 45.8125 C30.539375 46.534375 30.76625 47.25625 31 48 C29.68 48 28.36 48 27 48 C26.95101562 47.41992188 26.90203125 46.83984375 26.8515625 46.2421875 C26.40082036 41.53270926 25.56494752 37.48618288 24 33 C24 31.68 24 30.36 24 29 C25.32 29 26.64 29 28 29 C28 27.35 28 25.7 28 24 C26.35 24.33 24.7 24.66 23 25 C22.67 25.99 22.34 26.98 22 28 C22.33 26.35 22.66 24.7 23 23 C24.32 22.67 25.64 22.34 27 22 C27 21.34 27 20.68 27 20 C25.824375 20.350625 24.64875 20.70125 23.4375 21.0625 C19.25308347 22.12911598 16.20108938 21.87522695 12 21 C12 20.34 12 19.68 12 19 C11.01 19 10.02 19 9 19 C9 18.34 9 17.68 9 17 C6.69 16.67 4.38 16.34 2 16 C1.67 17.98 1.34 19.96 1 22 C0.67 22 0.34 22 0 22 C0 14.74 0 7.48 0 0 Z " fill="#24CB94" transform="translate(23,38)"/>
<path d="M0 0 C1.134375 0.020625 2.26875 0.04125 3.4375 0.0625 C6.17359348 6.11553363 8.76672869 12.21810492 11.2890625 18.36328125 C12.25506403 20.63371342 13.33404894 22.85559789 14.4375 25.0625 C14.7675 16.8125 15.0975 8.5625 15.4375 0.0625 C18.0775 0.0625 20.7175 0.0625 23.4375 0.0625 C23.4375 16.2325 23.4375 32.4025 23.4375 49.0625 C20.7975 49.0625 18.1575 49.0625 15.4375 49.0625 C12.64624905 42.4046801 9.88559005 35.7384002 7.234375 29.0234375 C6.45496282 27.0327756 6.45496282 27.0327756 5.4375 25.0625 C5.1075 32.9825 4.7775 40.9025 4.4375 49.0625 C1.4675 49.0625 -1.5025 49.0625 -4.5625 49.0625 C-4.58714247 42.24487576 -4.60533244 35.4272772 -4.61743164 28.60961914 C-4.62247333 26.28832549 -4.62930651 23.96703503 -4.63793945 21.64575195 C-4.65001225 18.31721205 -4.65572979 14.98871398 -4.66015625 11.66015625 C-4.66531754 10.61537613 -4.67047882 9.57059601 -4.67579651 8.49415588 C-4.67587204 7.53323532 -4.67594757 6.57231476 -4.67602539 5.58227539 C-4.678246 4.73178116 -4.68046661 3.88128693 -4.68275452 3.00502014 C-4.46621323 -0.49285936 -3.63080088 0.06369826 0 0 Z " fill="#2ECF9A" transform="translate(177.5625,70.9375)"/>
<path d="M0 0 C2.64 0 5.28 0 8 0 C8.26216309 0.61520508 8.52432617 1.23041016 8.79443359 1.86425781 C9.98667976 4.66005133 11.18081974 7.45503209 12.375 10.25 C12.99375 11.70212891 12.99375 11.70212891 13.625 13.18359375 C14.02460938 14.11816406 14.42421875 15.05273438 14.8359375 16.015625 C15.38580322 17.30388184 15.38580322 17.30388184 15.94677734 18.61816406 C16.9004704 20.77491637 17.94538055 22.8907611 19 25 C19.33 16.75 19.66 8.5 20 0 C22.64 0 25.28 0 28 0 C28 16.17 28 32.34 28 49 C25.69 49 23.38 49 21 49 C19.93413396 46.75154483 18.87232369 44.5013025 17.8125 42.25 C17.52052734 41.63511719 17.22855469 41.02023438 16.92773438 40.38671875 C14.07935173 34.32242021 11.5864076 28.20737824 9 22 C8.67 30.91 8.34 39.82 8 49 C5.36 49 2.72 49 0 49 C0 32.83 0 16.66 0 0 Z " fill="#3BCE9D" transform="translate(224,16)"/>
<path d="M0 0 C2.97 0 5.94 0 9 0 C9.33 5.94 9.66 11.88 10 18 C13.3 12.06 16.6 6.12 20 0 C22.97 0 25.94 0 29 0 C28.30331236 5.84564469 24.99118164 9.93833777 21.8125 14.74609375 C19.9392978 18.10897614 19.27870255 20.18977617 19 24 C19.92810897 26.72275443 19.92810897 26.72275443 21.52734375 29.29296875 C22.07197266 30.25267578 22.61660156 31.21238281 23.17773438 32.20117188 C23.75845703 33.18666016 24.33917969 34.17214844 24.9375 35.1875 C26.07697143 37.15706681 27.21134405 39.12959502 28.33984375 41.10546875 C28.84894287 41.97324951 29.35804199 42.84103027 29.88256836 43.73510742 C31 46 31 46 31 49 C25.93694617 49.78564628 25.93694617 49.78564628 23 49 C19.39780613 45.33636145 17.00603162 41.04172166 16 36 C15.34 36 14.68 36 14 36 C12.68 33.36 11.36 30.72 10 28 C9.67 34.93 9.34 41.86 9 49 C6.36 49 3.72 49 1 49 C0 48 0 48 -0.12025452 46.05747986 C-0.11803391 45.20698563 -0.11581329 44.35649139 -0.11352539 43.48022461 C-0.11344986 42.51930405 -0.11337433 41.55838348 -0.11329651 40.56834412 C-0.10813522 39.523564 -0.10297394 38.47878387 -0.09765625 37.40234375 C-0.0962413 36.33834854 -0.09482635 35.27435333 -0.09336853 34.17811584 C-0.08775064 30.76454917 -0.07519511 27.351047 -0.0625 23.9375 C-0.05748731 21.62955824 -0.052924 19.32161545 -0.04882812 17.01367188 C-0.03777539 11.34242289 -0.02049877 5.6712224 0 0 Z " fill="#2CC996" transform="translate(94,16)"/>
<path d="M0 0 C3.3 0 6.6 0 10 0 C11.76145654 8.48593012 13.51805435 16.97284211 15.26904297 25.4609375 C15.8656444 28.34949274 16.46541547 31.2373566 17.06640625 34.125 C17.33627343 35.43743097 17.60584642 36.7499225 17.875 38.0625 C18.09929687 39.14660156 18.32359375 40.23070312 18.5546875 41.34765625 C19 44 19 44 19 48 C16.69 48 14.38 48 12 48 C11.34 46.02 10.68 44.04 10 42 C6.37 42 2.74 42 -1 42 C-1 43.98 -1 45.96 -1 48 C-3.64 48 -6.28 48 -9 48 C-9.20246417 43.38521313 -8.50725434 39.72650983 -7.1875 35.3125 C-5.23955119 28.50850666 -4.03275241 21.70125932 -3.03979492 14.69848633 C-2.3203384 9.69220128 -1.30158089 4.88927182 0 0 Z " fill="#36CC9B" transform="translate(197,16)"/>
<path d="M0 0 C1.23556641 0.01740234 1.23556641 0.01740234 2.49609375 0.03515625 C3.32238281 0.04417969 4.14867187 0.05320312 5 0.0625 C5.63808594 0.07410156 6.27617187 0.08570313 6.93359375 0.09765625 C7.02858154 0.72518799 7.12356934 1.35271973 7.22143555 1.99926758 C9.04392967 13.87414174 11.0178423 25.56453135 14.3581543 37.1184082 C15.43083602 40.87342548 16.21172633 44.18062248 15.93359375 48.09765625 C13.62359375 48.09765625 11.31359375 48.09765625 8.93359375 48.09765625 C8.27359375 46.11765625 7.61359375 44.13765625 6.93359375 42.09765625 C3.30359375 42.09765625 -0.32640625 42.09765625 -4.06640625 42.09765625 C-4.06640625 44.07765625 -4.06640625 46.05765625 -4.06640625 48.09765625 C-6.70640625 48.09765625 -9.34640625 48.09765625 -12.06640625 48.09765625 C-11.1914995 37.08097329 -8.94276252 26.41589769 -6.50390625 15.66015625 C-6.34429413 14.95132294 -6.18468201 14.24248962 -6.02023315 13.51217651 C-2.99729264 0.14164899 -2.99729264 0.14164899 0 0 Z " fill="#32CD9A" transform="translate(163.06640625,15.90234375)"/>
<path d="M0 0 C1 1 1 1 1.0625 4.5625 C1.041875 5.696875 1.02125 6.83125 1 8 C-0.12148437 8.14695312 -0.12148437 8.14695312 -1.265625 8.296875 C-7.2425707 9.12814389 -7.2425707 9.12814389 -12.5625 11.75 C-16.24032526 17.50659606 -16.6860805 23.32918649 -16 30 C-14.84102013 34.534403 -13.03913614 37.53954031 -9 40 C-6.42126391 40.56984448 -6.42126391 40.56984448 -3.75 40.6875 C-2.41195312 40.78611328 -2.41195312 40.78611328 -1.046875 40.88671875 C-0.37140625 40.92410156 0.3040625 40.96148437 1 41 C1 43.64 1 46.28 1 49 C-5.93408515 49.52005639 -11.61195455 49.80110194 -17.3828125 45.55078125 C-22.21654227 40.91553797 -24.69188998 34.43994442 -25.15234375 27.8046875 C-25.18712023 25.52489627 -25.12173705 23.2764829 -25 21 C-24.938125 19.824375 -24.87625 18.64875 -24.8125 17.4375 C-23.04478838 9.95872008 -18.98426319 5.08719431 -12.48828125 1.05859375 C-8.38299517 -0.68792513 -4.37073447 -0.68509528 0 0 Z " fill="#35CB9A" transform="translate(251,71)"/>
<path d="M0 0 C0 2.64 0 5.28 0 8 C-0.60328125 8.06058594 -1.2065625 8.12117188 -1.828125 8.18359375 C-2.62734375 8.26738281 -3.4265625 8.35117188 -4.25 8.4375 C-5.03890625 8.51871094 -5.8278125 8.59992188 -6.640625 8.68359375 C-8.85601893 8.98069128 -10.88718479 9.26631911 -13 10 C-14.24714403 12.40952023 -14.24714403 12.40952023 -15 15 C-15.33 15.66 -15.66 16.32 -16 17 C-16.14977039 19.24655587 -16.22150174 21.49863768 -16.25 23.75 C-16.27578125 24.96171875 -16.3015625 26.1734375 -16.328125 27.421875 C-15.96981317 31.32918017 -14.94259239 33.62403847 -13 37 C-12.58621094 38.15242188 -12.58621094 38.15242188 -12.1640625 39.328125 C-11.07612444 41.28803429 -11.07612444 41.28803429 -8.3984375 41.609375 C-7.40070313 41.65578125 -6.40296875 41.7021875 -5.375 41.75 C-3.87066406 41.83507812 -3.87066406 41.83507812 -2.3359375 41.921875 C-1.56507812 41.94765625 -0.79421875 41.9734375 0 42 C0 44.31 0 46.62 0 49 C-7.09309374 49.46939591 -13.29774164 49.69597747 -19 45 C-24.89294657 39.22062199 -25.57221083 32.74925001 -25.6875 24.875 C-25.70683594 24.02808594 -25.72617188 23.18117188 -25.74609375 22.30859375 C-25.61583728 15.35072733 -23.35970052 10.47237509 -18.5222168 5.47265625 C-12.55919166 0.19344234 -7.63236224 -0.29930832 0 0 Z " fill="#2AC794" transform="translate(120,71)"/>
<path d="M0 0 C2.64 0 5.28 0 8 0 C9 1 9 1 9.11352539 4.78540039 C9.11336622 6.47282729 9.10766917 8.16025905 9.09765625 9.84765625 C9.0962413 10.7340831 9.09482635 11.62050995 9.09336853 12.53379822 C9.08775215 15.37673254 9.07519691 18.21958931 9.0625 21.0625 C9.05748711 22.98502491 9.05292384 24.90755104 9.04882812 26.83007812 C9.03777741 31.55341549 9.02050183 36.27669458 9 41 C12.96 41 16.92 41 21 41 C21 43.64 21 46.28 21 49 C14.07 49 7.14 49 0 49 C0 32.83 0 16.66 0 0 Z " fill="#2AC994" transform="translate(128,71)"/>
<path d="M0 0 C0 2 0 2 -1.8125 4.0625 C-4 6 -4 6 -7 7 C-7 7.66 -7 8.32 -7 9 C-9 11 -9 11 -11.375 11.0625 C-12.24125 11.041875 -13.1075 11.02125 -14 11 C-14.61875 11.185625 -15.2375 11.37125 -15.875 11.5625 C-19.0290197 12.211857 -21.85785502 11.54383279 -25 11 C-25.33 13.64 -25.66 16.28 -26 19 C-24.01508358 18.73323796 -24.01508358 18.73323796 -22 18 C-21.67 17.01 -21.34 16.02 -21 15 C-21.99 14.67 -22.98 14.34 -24 14 C-23.01 13.67 -22.02 13.34 -21 13 C-20.34 13.33 -19.68 13.66 -19 14 C-19.94186031 19.83953393 -21.56453667 25.74427191 -24.75 30.75 C-26.27641945 32.98592205 -26.27641945 32.98592205 -25.6875 35.8125 C-25.460625 36.534375 -25.23375 37.25625 -25 38 C-26.32 38 -27.64 38 -29 38 C-29.04898438 37.41992188 -29.09796875 36.83984375 -29.1484375 36.2421875 C-29.59917964 31.53270926 -30.43505248 27.48618288 -32 23 C-32 21.68 -32 20.36 -32 19 C-30.68 19 -29.36 19 -28 19 C-28 17.35 -28 15.7 -28 14 C-29.65 14.33 -31.3 14.66 -33 15 C-33.33 15.99 -33.66 16.98 -34 18 C-33.67 16.35 -33.34 14.7 -33 13 C-31.68 12.67 -30.36 12.34 -29 12 C-29 11.34 -29 10.68 -29 10 C-30.175625 10.350625 -31.35125 10.70125 -32.5625 11.0625 C-36.74691653 12.12911598 -39.79891062 11.87522695 -44 11 C-44 10.34 -44 9.68 -44 9 C-44.99 9 -45.98 9 -47 9 C-47 8.34 -47 7.68 -47 7 C-47.99 6.67 -48.98 6.34 -50 6 C-50.66 4.35 -51.32 2.7 -52 1 C-46.39 1.33 -40.78 1.66 -35 2 C-34.67 3.65 -34.34 5.3 -34 7 C-32.68 7 -31.36 7 -30 7 C-29.67 6.01 -29.34 5.02 -29 4 C-26.525 4.495 -26.525 4.495 -24 5 C-24 5.99 -24 6.98 -24 8 C-22.68 7.67 -21.36 7.34 -20 7 C-19.67 5.35 -19.34 3.7 -19 2 C-16.77149723 1.66225668 -14.54216533 1.3299813 -12.3125 1 C-11.07113281 0.814375 -9.82976562 0.62875 -8.55078125 0.4375 C-5.64113629 0.07899589 -2.92299978 -0.08942256 0 0 Z " fill="#B6FAE7" transform="translate(79,48)"/>
<path d="M0 0 C2.97 0 5.94 0 9 0 C10 1 10 1 10.12025452 2.94252014 C10.1169236 4.21826149 10.1169236 4.21826149 10.11352539 5.51977539 C10.11344986 6.48069595 10.11337433 7.44161652 10.11329651 8.43165588 C10.10813522 9.476436 10.10297394 10.52121613 10.09765625 11.59765625 C10.0962413 12.66165146 10.09482635 13.72564667 10.09336853 14.82188416 C10.08775064 18.23545083 10.07519511 21.648953 10.0625 25.0625 C10.05748731 27.37044176 10.052924 29.67838455 10.04882812 31.98632812 C10.03777539 37.65757711 10.02049877 43.3287776 10 49 C6.7 49 3.4 49 0 49 C0 32.83 0 16.66 0 0 Z " fill="#2DCE99" transform="translate(156,71)"/>
<path d="M0 0 C2.64 0 5.28 0 8 0 C8 15.84 8 31.68 8 48 C5.36 48 2.72 48 0 48 C0 32.16 0 16.32 0 0 Z " fill="#32D09C" transform="translate(210,72)"/>
<path d="M0 0 C2.64 0 5.28 0 8 0 C8 15.84 8 31.68 8 48 C5.36 48 2.72 48 0 48 C0 32.16 0 16.32 0 0 Z " fill="#2FCF9A" transform="translate(134,16)"/>
<path d="M0 0 C0.66 0 1.32 0 2 0 C2 19.14 2 38.28 2 58 C21.14 58 40.28 58 60 58 C60 58.66 60 59.32 60 60 C47.87338605 60.8702161 35.86976553 61.09102346 23.71704102 60.75805664 C21.01267737 60.68617573 18.30831588 60.63268561 15.60351562 60.58007812 C13.87236875 60.53754667 12.14124721 60.49396824 10.41015625 60.44921875 C9.60715591 60.43453049 8.80415558 60.41984222 7.9768219 60.40470886 C4.1599255 60.28597524 2.24733562 60.16489042 -1 58 C-1.25687871 55.088708 -1.32556173 52.40712315 -1.25 49.5 C-1.23904297 48.66299561 -1.22808594 47.82599121 -1.21679688 46.96362305 C-1.06753056 38.29725349 -0.57852986 29.64695524 0 21 C-0.99 20.67 -1.98 20.34 -3 20 C-2.505 18.515 -2.505 18.515 -2 17 C-1.34 17 -0.68 17 0 17 C-0.08378906 16.10796875 -0.16757812 15.2159375 -0.25390625 14.296875 C-0.35574219 13.12640625 -0.45757813 11.9559375 -0.5625 10.75 C-0.66691406 9.58984375 -0.77132813 8.4296875 -0.87890625 7.234375 C-0.98198087 4.48128523 -0.86213473 2.580018 0 0 Z " fill="#1E6A57" transform="translate(21,39)"/>
<path d="M0 0 C0.66 0 1.32 0 2 0 C2.21739123 19.00965492 1.56233275 38.00118638 1 57 C-4.61 57 -10.22 57 -16 57 C-16 56.67 -16 56.34 -16 56 C-10.72 56 -5.44 56 0 56 C0 41.81 0 27.62 0 13 C-0.99 13.99 -1.98 14.98 -3 16 C-3.99 16 -4.98 16 -6 16 C-6 16.99 -6 17.98 -6 19 C-6.99 19 -7.98 19 -9 19 C-8.67 19.99 -8.34 20.98 -8 22 C-11.42232972 23.14077657 -14.08673217 23.09815117 -17.6875 23.0625 C-19.45673828 23.04896484 -19.45673828 23.04896484 -21.26171875 23.03515625 C-22.61716797 23.01775391 -22.61716797 23.01775391 -24 23 C-23.34 23.33 -22.68 23.66 -22 24 C-22.33 25.32 -22.66 26.64 -23 28 C-24.32 28 -25.64 28 -27 28 C-27 25.36 -27 22.72 -27 20 C-23.17206387 18.62194299 -19.94751261 19.41518332 -16 20 C-15.34 19.67 -14.68 19.34 -14 19 C-12.00448218 18.64080679 -10.00451121 18.30503431 -8 18 C-8 17.34 -8 16.68 -8 16 C-8.99 15.67 -9.98 15.34 -11 15 C-9.02 15 -7.04 15 -5 15 C-4.731875 14.38125 -4.46375 13.7625 -4.1875 13.125 C-3 11 -3 11 0 9 C0.36362818 6.79274927 0.36362818 6.79274927 0.1875 4.375 C0.16042969 3.55773438 0.13335937 2.74046875 0.10546875 1.8984375 C0.05326172 0.95871094 0.05326172 0.95871094 0 0 Z " fill="#30C496" transform="translate(80,39)"/>
<path d="M0 0 C0.66 1.32 1.32 2.64 2 4 C4.31 4 6.62 4 9 4 C9.33 2.68 9.66 1.36 10 0 C10 1.65 10 3.3 10 5 C7.42786866 6.61949011 6.32330841 7.04408751 3.25 6.625 C2.5075 6.41875 1.765 6.2125 1 6 C0.67 4.02 0.34 2.04 0 0 Z M5 7 C5.33 7.66 5.66 8.32 6 9 C7.65 8.67 9.3 8.34 11 8 C11.9727868 10.91836039 12.12658752 12.78567411 12.12939453 15.82275391 C12.13254669 16.80031647 12.13569885 17.77787903 12.13894653 18.7850647 C12.1369223 19.83825897 12.13489807 20.89145325 12.1328125 21.9765625 C12.13376923 23.05755219 12.13472595 24.13854187 12.13571167 25.25228882 C12.1363923 27.53700824 12.13454614 29.8217296 12.13037109 32.10644531 C12.12501087 35.61788229 12.13032538 39.12919196 12.13671875 42.640625 C12.13605815 44.85677112 12.13477737 47.07291716 12.1328125 49.2890625 C12.13483673 50.34630524 12.13686096 51.40354797 12.13894653 52.49282837 C12.13579437 53.46408661 12.13264221 54.43534485 12.12939453 55.43603516 C12.12859894 56.29524567 12.12780334 57.15445618 12.12698364 58.03970337 C12 60 12 60 11 61 C9.48071962 61.07179964 7.95832518 61.08392007 6.4375 61.0625 C5.61121094 61.05347656 4.78492188 61.04445312 3.93359375 61.03515625 C3.29550781 61.02355469 2.65742188 61.01195312 2 61 C1.92412821 53.63108899 1.87147564 46.26227814 1.83520508 38.89306641 C1.8200897 36.38456458 1.79959702 33.87608928 1.77368164 31.36767578 C1.73741958 27.76848818 1.72030126 24.169649 1.70703125 20.5703125 C1.69154739 19.44319855 1.67606354 18.31608459 1.66011047 17.15481567 C1.65988388 16.11388763 1.65965729 15.07295959 1.65942383 14.00048828 C1.65276199 13.08115509 1.64610016 12.1618219 1.63923645 11.21463013 C1.75828842 10.48380219 1.87734039 9.75297424 2 9 C2.99 8.34 3.98 7.68 5 7 Z M3 12 C3 27.84 3 43.68 3 60 C5.64 60 8.28 60 11 60 C11 44.16 11 28.32 11 12 C8.36 12 5.72 12 3 12 Z " fill="#379077" transform="translate(207,60)"/>
<path d="M0 0 C2.97 0 5.94 0 9 0 C10 1 10 1 10.12025452 2.94252014 C10.1169236 4.21826149 10.1169236 4.21826149 10.11352539 5.51977539 C10.11344986 6.48069595 10.11337433 7.44161652 10.11329651 8.43165588 C10.10813522 9.476436 10.10297394 10.52121613 10.09765625 11.59765625 C10.0962413 12.66165146 10.09482635 13.72564667 10.09336853 14.82188416 C10.08775064 18.23545083 10.07519511 21.648953 10.0625 25.0625 C10.05748731 27.37044176 10.052924 29.67838455 10.04882812 31.98632812 C10.0377754 37.65757426 10.02101987 43.32878253 10 49 C9.67 49 9.34 49 9 49 C8.26741888 42.99074916 7.81612968 37.0772356 7.68359375 31.02734375 C7.66281265 30.21882462 7.64203156 29.41030548 7.62062073 28.57728577 C7.55598384 26.03076486 7.49664591 23.48415373 7.4375 20.9375 C7.3942328 19.19595475 7.35061612 17.45441814 7.30664062 15.71289062 C7.20039252 11.47534948 7.09889177 7.23771894 7 3 C6.01 3 5.02 3 4 3 C1.90353428 8.20070618 1.66145641 12.81818503 1.5859375 18.3359375 C1.56657135 19.21528961 1.5472052 20.09464172 1.5272522 21.00064087 C1.46777185 23.79199718 1.4211979 26.58339543 1.375 29.375 C1.33679115 31.27475694 1.29773774 33.1744971 1.2578125 35.07421875 C1.16209643 39.7160085 1.0779496 44.35787929 1 49 C0.67 49 0.34 49 0 49 C0 32.83 0 16.66 0 0 Z " fill="#33A885" transform="translate(156,71)"/>
<path d="M0 0 C0.7940625 -0.01417969 1.588125 -0.02835937 2.40625 -0.04296875 C4.5 0.1875 4.5 0.1875 6.5 2.1875 C6.70254517 4.28823853 6.70254517 4.28823853 6.63525391 6.91259766 C6.61508209 7.89346344 6.59491028 8.87432922 6.5741272 9.88491821 C6.52583267 11.47715714 6.52583267 11.47715714 6.4765625 13.1015625 C6.45153656 14.18633881 6.42651062 15.27111511 6.40072632 16.38876343 C6.31835928 19.86365234 6.22183383 23.33798699 6.125 26.8125 C6.06677756 29.16403964 6.00947394 31.51560222 5.953125 33.8671875 C5.8127557 39.64093379 5.66075128 45.4142872 5.5 51.1875 C4.84 51.1875 4.18 51.1875 3.5 51.1875 C3.5 35.0175 3.5 18.8475 3.5 2.1875 C0.86 2.1875 -1.78 2.1875 -4.5 2.1875 C-4.5 11.4275 -4.5 20.6675 -4.5 30.1875 C-6.24627478 27.56808783 -6.88722388 26.14925123 -7.5 23.1875 C-6.84 23.1875 -6.18 23.1875 -5.5 23.1875 C-5.83 15.9275 -6.16 8.6675 -6.5 1.1875 C-4.14653604 0.01076802 -2.6193967 0.02126134 0 0 Z " fill="#2F7D68" transform="translate(197.5,68.8125)"/>
<path d="M0 0 C1.134375 0.020625 2.26875 0.04125 3.4375 0.0625 C4.50525224 2.02716413 5.50303465 4.03105359 6.4375 6.0625 C6.1075 6.7225 5.7775 7.3825 5.4375 8.0625 C4.7775 7.4025 4.1175 6.7425 3.4375 6.0625 C3.4375 4.7425 3.4375 3.4225 3.4375 2.0625 C1.4575 2.0625 -0.5225 2.0625 -2.5625 2.0625 C-2.5625 17.2425 -2.5625 32.4225 -2.5625 48.0625 C-0.5825 48.0625 1.3975 48.0625 3.4375 48.0625 C3.4375 39.4825 3.4375 30.9025 3.4375 22.0625 C4.0975 22.3925 4.7575 22.7225 5.4375 23.0625 C5.1075 31.6425 4.7775 40.2225 4.4375 49.0625 C1.4675 49.0625 -1.5025 49.0625 -4.5625 49.0625 C-4.58714247 42.24487576 -4.60533244 35.4272772 -4.61743164 28.60961914 C-4.62247333 26.28832549 -4.62930651 23.96703503 -4.63793945 21.64575195 C-4.65001225 18.31721205 -4.65572979 14.98871398 -4.66015625 11.66015625 C-4.66531754 10.61537613 -4.67047882 9.57059601 -4.67579651 8.49415588 C-4.67587204 7.53323532 -4.67594757 6.57231476 -4.67602539 5.58227539 C-4.678246 4.73178116 -4.68046661 3.88128693 -4.68275452 3.00502014 C-4.46621323 -0.49285936 -3.63080088 0.06369826 0 0 Z " fill="#3AB38E" transform="translate(177.5625,70.9375)"/>
<path d="M0 0 C3.3 0 6.6 0 10 0 C10.97342373 2.92027119 11.09473842 4.62917447 11.02172852 7.6550293 C10.99158409 9.06615242 10.99158409 9.06615242 10.96083069 10.50578308 C10.92027809 12.02465874 10.92027809 12.02465874 10.87890625 13.57421875 C10.85529526 14.61318802 10.83168427 15.65215729 10.80735779 16.72261047 C10.73072211 20.04437933 10.64669703 23.36591502 10.5625 26.6875 C10.50927924 28.93813959 10.45653884 31.1887906 10.40429688 33.43945312 C10.27510707 38.95978001 10.13984824 44.4799334 10 50 C9.67 50 9.34 50 9 50 C9 33.83 9 17.66 9 1 C6.36 1 3.72 1 1 1 C1 9.91 1 18.82 1 28 C-1.68713056 25.31286944 -2.49443567 24.31057486 -3.75390625 20.98046875 C-4.05103516 20.20509766 -4.34816406 19.42972656 -4.65429688 18.63085938 C-5.10385742 17.42139648 -5.10385742 17.42139648 -5.5625 16.1875 C-6.01786133 14.99543945 -6.01786133 14.99543945 -6.48242188 13.77929688 C-8.08803784 9.5501254 -9.60666919 5.30476831 -11 1 C-9.1328125 1.58984375 -9.1328125 1.58984375 -7 3 C-5.8046875 6.00390625 -5.8046875 6.00390625 -4.875 9.5625 C-4.30236469 11.72289684 -3.68851753 13.87369586 -3 16 C-2.34 16.33 -1.68 16.66 -1 17 C-0.67 11.39 -0.34 5.78 0 0 Z " fill="#3D8471" transform="translate(243,15)"/>
<path d="M0 0 C2.64 0 5.28 0 8 0 C8 13.2 8 26.4 8 40 C11.96 40 15.92 40 20 40 C20 42.64 20 45.28 20 48 C19.67 48 19.34 48 19 48 C19 45.69 19 43.38 19 41 C17.71802734 41.01740234 17.71802734 41.01740234 16.41015625 41.03515625 C15.30542969 41.04417969 14.20070312 41.05320313 13.0625 41.0625 C11.96035156 41.07410156 10.85820312 41.08570313 9.72265625 41.09765625 C7 41 7 41 6 40 C5.83976438 37.11747355 5.74045971 34.25621473 5.68359375 31.37109375 C5.66281265 30.50686295 5.64203156 29.64263214 5.62062073 28.75221252 C5.55502886 25.98072555 5.49619582 23.20914079 5.4375 20.4375 C5.39432392 18.56314077 5.35070994 16.68879157 5.30664062 14.81445312 C5.19933773 10.20973664 5.09809785 5.60492142 5 1 C3.68 1 2.36 1 1 1 C1 4.63 1 8.26 1 12 C0.67 12 0.34 12 0 12 C0 8.04 0 4.08 0 0 Z " fill="#36BD93" transform="translate(129,72)"/>
<path d="M0 0 C2.64 0 5.28 0 8 0 C8 16.17 8 32.34 8 49 C5.36 49 2.72 49 0 49 C-0.66 46.36 -1.32 43.72 -2 41 C-1.34 41.33 -0.68 41.66 0 42 C0 42.99 0 43.98 0 45 C0.66 45 1.32 45 2 45 C2 45.99 2 46.98 2 48 C3.65 48 5.3 48 7 48 C7 32.82 7 17.64 7 2 C5.02 2 3.04 2 1 2 C1 10.91 1 19.82 1 29 C0.34 28.67 -0.32 28.34 -1 28 C-0.67 18.76 -0.34 9.52 0 0 Z " fill="#3FBC95" transform="translate(193,71)"/>
<path d="M0 0 C2.64 0 5.28 0 8 0 C8.75 3.125 8.75 3.125 9 7 C7.70427617 9.02456848 6.3726682 11.02678947 5 13 C5.12245809 15.79561167 5.12245809 15.79561167 6 18 C4.68 18 3.36 18 2 18 C1.90912109 17.04287109 1.90912109 17.04287109 1.81640625 16.06640625 C1.73261719 15.24011719 1.64882813 14.41382812 1.5625 13.5625 C1.48128906 12.73878906 1.40007813 11.91507813 1.31640625 11.06640625 C1.21069185 9.01337975 1.21069185 9.01337975 0 8 C-0.14115161 5.32941149 -0.04247107 2.67567762 0 0 Z " fill="#B4F8E4" transform="translate(48,68)"/>
<path d="M0 0 C5.61 0.33 11.22 0.66 17 1 C17 1.33 17 1.66 17 2 C14.69 2.66 12.38 3.32 10 4 C11.65 4 13.3 4 15 4 C14.67 4.99 14.34 5.98 14 7 C15.81414051 8.81414051 18.54959054 8.6350454 21 9 C17.8250906 10.9078584 15.89414789 11.1609041 12.25 10.625 C11.45078125 10.51414062 10.6515625 10.40328125 9.828125 10.2890625 C8.92320313 10.14597656 8.92320313 10.14597656 8 10 C8 9.34 8 8.68 8 8 C7.01 8 6.02 8 5 8 C5 7.34 5 6.68 5 6 C4.01 5.67 3.02 5.34 2 5 C1.34 3.35 0.68 1.7 0 0 Z " fill="#ABEDD8" transform="translate(27,49)"/>
<path d="M0 0 C0 2 0 2 -1.8125 4.0625 C-4 6 -4 6 -7 7 C-7 7.66 -7 8.32 -7 9 C-7.66 9.66 -8.32 10.32 -9 11 C-11.625 10.625 -11.625 10.625 -14 10 C-14 9.34 -14 8.68 -14 8 C-14.99 7.67 -15.98 7.34 -17 7 C-17 6.34 -17 5.68 -17 5 C-15.35 4.67 -13.7 4.34 -12 4 C-14.31 3.67 -16.62 3.34 -19 3 C-19 2.67 -19 2.34 -19 2 C-16.77149723 1.66225668 -14.54216533 1.3299813 -12.3125 1 C-10.45044922 0.7215625 -10.45044922 0.7215625 -8.55078125 0.4375 C-5.64113629 0.07899589 -2.92299978 -0.08942256 0 0 Z " fill="#A2ECD5" transform="translate(79,48)"/>
<path d="M0 0 C2.31 0.33 4.62 0.66 7 1 C7 1.33 7 1.66 7 2 C5.35 2.33 3.7 2.66 2 3 C1.67 5.31 1.34 7.62 1 10 C1.89138672 9.98259766 1.89138672 9.98259766 2.80078125 9.96484375 C9.25895513 9.89453704 15.57989613 10.31649084 22 11 C22.33 11.99 22.66 12.98 23 14 C25.01508358 14.73323796 25.01508358 14.73323796 27 15 C26.67 15.66 26.34 16.32 26 17 C24.68 17 23.36 17 22 17 C21.67 15.68 21.34 14.36 21 13 C20.02417969 12.93941406 19.04835938 12.87882812 18.04296875 12.81640625 C16.77066406 12.73261719 15.49835937 12.64882813 14.1875 12.5625 C12.92292969 12.48128906 11.65835938 12.40007813 10.35546875 12.31640625 C7 12 7 12 4 11 C4.66 12.65 5.32 14.3 6 16 C4.68 16 3.36 16 2 16 C1.67 17.98 1.34 19.96 1 22 C0.67 22 0.34 22 0 22 C0 14.74 0 7.48 0 0 Z " fill="#2FC796" transform="translate(23,38)"/>
<path d="M0 0 C3.302674 4.95401099 4.25488359 8.8761578 4.5625 14.8125 C4.86321685 19.91931659 5.29093299 24.93523566 6 30 C6.66 30 7.32 30 8 30 C8 31.32 8 32.64 8 34 C8.66 34 9.32 34 10 34 C9.67 36.64 9.34 39.28 9 42 C9.66 42 10.32 42 11 42 C11 43.65 11 45.3 11 47 C10.01 47.495 10.01 47.495 9 48 C0 14.27074236 0 14.27074236 0 0 Z " fill="#34856F" transform="translate(170,16)"/>
<path d="M0 0 C0.33 0.99 0.66 1.98 1 3 C0.34 3 -0.32 3 -1 3 C-1 3.99 -1 4.98 -1 6 C-1.99 6 -2.98 6 -4 6 C-3.67 6.99 -3.34 7.98 -3 9 C-6.42232972 10.14077657 -9.08673217 10.09815117 -12.6875 10.0625 C-14.45673828 10.04896484 -14.45673828 10.04896484 -16.26171875 10.03515625 C-17.61716797 10.01775391 -17.61716797 10.01775391 -19 10 C-18.34 10.33 -17.68 10.66 -17 11 C-17.33 12.32 -17.66 13.64 -18 15 C-19.32 15 -20.64 15 -22 15 C-22 12.36 -22 9.72 -22 7 C-18.17206387 5.62194299 -14.94751261 6.41518332 -11 7 C-10.34 6.67 -9.68 6.34 -9 6 C-7.00448218 5.64080679 -5.00451121 5.30503431 -3 5 C-3 4.34 -3 3.68 -3 3 C-3.99 2.67 -4.98 2.34 -6 2 C-4.02 2 -2.04 2 0 2 C0 1.34 0 0.68 0 0 Z " fill="#51CFA4" transform="translate(75,52)"/>
<path d="M0 0 C2.64 0 5.28 0 8 0 C7.67 0.66 7.34 1.32 7 2 C5.35 2 3.7 2 2 2 C2.495 2.4125 2.99 2.825 3.5 3.25 C5 5 5 5 5 9 C-1.93 8.505 -1.93 8.505 -9 8 C-9.33 5.69 -9.66 3.38 -10 1 C-7.525 1.495 -7.525 1.495 -5 2 C-5 2.99 -5 3.98 -5 5 C-3.68 4.67 -2.36 4.34 -1 4 C-0.67 2.68 -0.34 1.36 0 0 Z " fill="#B6F3E1" transform="translate(60,51)"/>
<path d="M0 0 C3.10551666 3.10551666 3.81323934 4.89198233 5 9 C5.66 9 6.32 9 7 9 C7.33 10.32 7.66 11.64 8 13 C7.34 13 6.68 13 6 13 C5.34 12.34 4.68 11.68 4 11 C3.34 11 2.68 11 2 11 C2.03480469 11.77085938 2.06960937 12.54171875 2.10546875 13.3359375 C2.13253906 14.33882812 2.15960938 15.34171875 2.1875 16.375 C2.22230469 17.37273438 2.25710937 18.37046875 2.29296875 19.3984375 C2.14794922 20.68621094 2.14794922 20.68621094 2 22 C-1.4352048 24.29013653 -2.985331 24.17842973 -7 24 C-7 23.34 -7 22.68 -7 22 C-4.69 22 -2.38 22 0 22 C0 14.74 0 7.48 0 0 Z " fill="#277662" transform="translate(103,43)"/>
<path d="M0 0 C0.66 0 1.32 0 2 0 C2 2.97 2 5.94 2 9 C-3.47368421 11.03671971 -3.47368421 11.03671971 -6.6875 10.8125 C-7.450625 10.874375 -8.21375 10.93625 -9 11 C-12.7962314 15.92104071 -14.22165028 21.19502921 -14.625 27.3125 C-14.69976562 28.38113281 -14.77453125 29.44976562 -14.8515625 30.55078125 C-14.90054688 31.35902344 -14.94953125 32.16726562 -15 33 C-17.8673539 28.69896915 -17.58258446 25.04663786 -17 20 C-15.71530787 15.23350022 -14.23980321 11.92985241 -10.25 8.9375 C-6.26875202 7.78906308 -3.13034011 7.78636172 1 8 C0.67 5.36 0.34 2.72 0 0 Z " fill="#377D6A" transform="translate(251,71)"/>
<path d="M0 0 C0.66 0.99 1.32 1.98 2 3 C5.56769552 3.73606499 5.56769552 3.73606499 9 4 C8.67 4.66 8.34 5.32 8 6 C7.34 6 6.68 6 6 6 C6 6.66 6 7.32 6 8 C6.66 8 7.32 8 8 8 C8 8.66 8 9.32 8 10 C7.05640625 10.03867188 7.05640625 10.03867188 6.09375 10.078125 C-0.23015102 10.49717868 -4.50558326 11.8457978 -10 15 C-10 14.01 -10 13.02 -10 12 C-9.43410156 11.73445313 -8.86820313 11.46890625 -8.28515625 11.1953125 C-7.55167969 10.84210938 -6.81820312 10.48890625 -6.0625 10.125 C-4.96615234 9.60292969 -4.96615234 9.60292969 -3.84765625 9.0703125 C-1.83667541 8.1315023 -1.83667541 8.1315023 -1 6 C-0.64080679 4.00448218 -0.30503431 2.00451121 0 0 Z " fill="#3B7568" transform="translate(243,61)"/>
<path d="M0 0 C0.66 0 1.32 0 2 0 C1.48517081 5.852795 0.54642808 11.3297637 -1 17 C1.64 17 4.28 17 7 17 C7 15.02 7 13.04 7 11 C10.63 11 14.26 11 18 11 C17.67 11.66 17.34 12.32 17 13 C14.03 12.67 11.06 12.34 8 12 C8 13.98 8 15.96 8 18 C4.37 18 0.74 18 -3 18 C-2.67 13.71 -2.34 9.42 -2 5 C-1.34 5 -0.68 5 0 5 C0 3.35 0 1.7 0 0 Z " fill="#35826E" transform="translate(189,47)"/>
<path d="M0 0 C0.66 0.33 1.32 0.66 2 1 C1.01 2.485 1.01 2.485 0 4 C-2.07130341 14.35651703 -1.3797255 23.74124907 3.6875 33.125 C4.120625 33.74375 4.55375 34.3625 5 35 C0.85403287 33.25796501 -0.38147584 31.33709259 -2.21923828 27.34912109 C-3.6009026 23.19203101 -3.53786741 19.15419996 -3.4375 14.8125 C-3.44458984 13.93658203 -3.45167969 13.06066406 -3.45898438 12.15820312 C-3.41092675 7.28220211 -3.11349815 3.98891142 0 0 Z " fill="#337B69" transform="translate(228,81)"/>
<path d="M0 0 C0.66 0.33 1.32 0.66 2 1 C3.67654729 0.72057545 5.34608154 0.39171753 7 0 C7 1.65 7 3.3 7 5 C5.68 5 4.36 5 3 5 C3.33 7.97 3.66 10.94 4 14 C5.32 14.33 6.64 14.66 8 15 C7.01 15 6.02 15 5 15 C4.67 15.66 4.34 16.32 4 17 C2.68 13.7 1.36 10.4 0 7 C-0.66 7 -1.32 7 -2 7 C-1.34 4.69 -0.68 2.38 0 0 Z " fill="#4BD2A4" transform="translate(44,62)"/>
<path d="M0 0 C3.76547669 3.76547669 3.91348469 5.90173585 5 11 C4.34 11 3.68 11 3 11 C2.34 16.28 1.68 21.56 1 27 C0.67 27 0.34 27 0 27 C0 18.09 0 9.18 0 0 Z " fill="#3B8872" transform="translate(232,37)"/>
<path d="M0 0 C1 2 1 2 0.58203125 3.875 C-1.51579094 9.66797093 -1.51579094 9.66797093 -4.1875 11.5 C-4.785625 11.665 -5.38375 11.83 -6 12 C-6.18172434 16.63397072 -5.76939155 19.75346028 -4 24 C-4.33 24.99 -4.66 25.98 -5 27 C-5.70765749 25.8033603 -6.39025121 24.59188424 -7.0625 23.375 C-7.63677734 22.36566406 -7.63677734 22.36566406 -8.22265625 21.3359375 C-9.29388541 18.11686696 -8.90547729 16.26618596 -8 13 C-6.70976871 10.60502522 -5.41996067 8.38837691 -3.9375 6.125 C-3.56044922 5.53203125 -3.18339844 4.9390625 -2.79492188 4.328125 C-1.87215204 2.87972678 -0.93729737 1.43903969 0 0 Z " fill="#2E7A66" transform="translate(121,21)"/>
<path d="M0 0 C0.66 0 1.32 0 2 0 C2.33872513 1.41538717 2.67074624 2.83237963 3 4.25 C3.185625 5.03890625 3.37125 5.8278125 3.5625 6.640625 C4 9 4 9 4 13 C2.02 13 0.04 13 -2 13 C-1.85769192 11.58297487 -1.71099254 10.1663904 -1.5625 8.75 C-1.48128906 7.96109375 -1.40007812 7.1721875 -1.31640625 6.359375 C-1.02365007 4.17635361 -0.57935581 2.1226818 0 0 Z " fill="#327E69" transform="translate(164,37)"/>
<path d="M0 0 C0.66 1.32 1.32 2.64 2 4 C4.31 4 6.62 4 9 4 C9.33 2.68 9.66 1.36 10 0 C10 1.65 10 3.3 10 5 C7.42786866 6.61949011 6.32330841 7.04408751 3.25 6.625 C2.5075 6.41875 1.765 6.2125 1 6 C0.67 4.02 0.34 2.04 0 0 Z M5 7 C5.33 7.66 5.66 8.32 6 9 C7.65 8.67 9.3 8.34 11 8 C11.33 8.66 11.66 9.32 12 10 C8.7 10.33 5.4 10.66 2 11 C2 10.34 2 9.68 2 9 C2.99 8.34 3.98 7.68 5 7 Z " fill="#3A796A" transform="translate(207,60)"/>
<path d="M0 0 C0.103125 0.639375 0.20625 1.27875 0.3125 1.9375 C0.6528125 2.9584375 0.6528125 2.9584375 1 4 C1.99 4.33 2.98 4.66 4 5 C4 5.66 4 6.32 4 7 C0.7 7 -2.6 7 -6 7 C-6 5 -6 5 -4.5 3.375 C-4.005 2.92125 -3.51 2.4675 -3 2 C-5.31 2.33 -7.62 2.66 -10 3 C-10.33 2.34 -10.66 1.68 -11 1 C-7.26562152 0.12132271 -3.83225427 -0.08912219 0 0 Z " fill="#D2FBEF" transform="translate(45,51)"/>
<path d="M0 0 C0.66 0 1.32 0 2 0 C2.33 3.96 2.66 7.92 3 12 C3.99 11.01 4.98 10.02 6 9 C4.67652988 13.85272378 3.76687864 15.23312136 0 19 C0 12.73 0 6.46 0 0 Z " fill="#288068" transform="translate(103,16)"/>
<path d="M0 0 C2.64 0 5.28 0 8 0 C8.33 1.65 8.66 3.3 9 5 C8.34 5 7.68 5 7 5 C7 5.66 7 6.32 7 7 C6.34 7 5.68 7 5 7 C5 6.34 5 5.68 5 5 C3.68 5.33 2.36 5.66 1 6 C0.67 4.02 0.34 2.04 0 0 Z " fill="#74D7B5" transform="translate(48,68)"/>
<path d="M0 0 C5.61 0.33 11.22 0.66 17 1 C17 1.33 17 1.66 17 2 C14.03 2.66 11.06 3.32 8 4 C8 4.33 8 4.66 8 5 C6.02 5 4.04 5 2 5 C1.34 3.35 0.68 1.7 0 0 Z " fill="#B9F7E5" transform="translate(27,49)"/>
<path d="M0 0 C2.97 0 5.94 0 9 0 C8.50168276 3.68754757 7.89932357 5.60490662 5 8 C4.957279 6.33388095 4.95936168 4.66617115 5 3 C5.33 2.67 5.66 2.34 6 2 C4.35 1.67 2.7 1.34 1 1 C0.938125 1.721875 0.87625 2.44375 0.8125 3.1875 C-0.24456647 6.84657625 -2.20550071 8.49211602 -5 11 C-3.55049545 7.2089881 -1.84827434 3.6125362 0 0 Z " fill="#36C497" transform="translate(114,16)"/>
<path d="M0 0 C6.27 0.33 12.54 0.66 19 1 C19.33 1.99 19.66 2.98 20 4 C22.01508358 4.73323796 22.01508358 4.73323796 24 5 C23.67 5.66 23.34 6.32 23 7 C21.68 7 20.36 7 19 7 C18.67 5.68 18.34 4.36 18 3 C17.02417969 2.93941406 16.04835938 2.87882812 15.04296875 2.81640625 C13.77066406 2.73261719 12.49835937 2.64882813 11.1875 2.5625 C9.92292969 2.48128906 8.65835938 2.40007813 7.35546875 2.31640625 C4 2 4 2 1 1 C0.67 1.66 0.34 2.32 0 3 C0 2.01 0 1.02 0 0 Z " fill="#50D2A6" transform="translate(26,48)"/>
<path d="M0 0 C0.66 0 1.32 0 2 0 C2.98248524 4.0527516 3.08159574 7.83861737 3 12 C1.35 12 -0.3 12 -2 12 C-1.34 8.04 -0.68 4.08 0 0 Z " fill="#307B67" transform="translate(201,37)"/>
<path d="M0 0 C0.33 0 0.66 0 1 0 C2.07421875 5.95703125 2.07421875 5.95703125 2 8 C0.75976562 9.63671875 0.75976562 9.63671875 -1 11 C-2.99291992 11.15698242 -2.99291992 11.15698242 -5.23046875 10.85546875 C-6.03291016 10.75556641 -6.83535156 10.65566406 -7.66210938 10.55273438 C-8.49548828 10.43220703 -9.32886719 10.31167969 -10.1875 10.1875 C-11.03248047 10.07857422 -11.87746094 9.96964844 -12.74804688 9.85742188 C-14.83400115 9.58636567 -16.91731128 9.29510064 -19 9 C-19 8.67 -19 8.34 -19 8 C-12.73 8 -6.46 8 0 8 C0 5.36 0 2.72 0 0 Z " fill="#2D7361" transform="translate(149,112)"/>
<path d="M0 0 C0.33 0.99 0.66 1.98 1 3 C1.66 3 2.32 3 3 3 C3.33695862 5.72876308 3.66968429 8.45793163 4 11.1875 C4.09539062 11.95642578 4.19078125 12.72535156 4.2890625 13.51757812 C4.75192894 17.36928811 5.12467468 21.11170851 5 25 C2.77180871 21.27020153 2.12817862 17.27799461 1.375 13.0625 C1.2409375 12.35931641 1.106875 11.65613281 0.96875 10.93164062 C0.2917031 7.24588019 -0.16137372 3.74827151 0 0 Z " fill="#377D6B" transform="translate(211,35)"/>
<path d="M0 0 C0 1.98 0 3.96 0 6 C-2.64 6 -5.28 6 -8 6 C-7.67 4.35 -7.34 2.7 -7 1 C-2.25 0 -2.25 0 0 0 Z " fill="#24D097" transform="translate(119,113)"/>
<path d="M0 0 C0.33 0 0.66 0 1 0 C1.09765625 6.15234375 1.09765625 6.15234375 1 8 C-0.53452742 9.53452742 -2.12050798 9.2647432 -4.25 9.4375 C-7.8189108 9.79040665 -10.73935345 10.4222678 -14 12 C-13 9 -13 9 -11.234375 7.8203125 C-8.74281777 6.90557995 -6.89383164 6.79724025 -4.25 6.875 C-3.45078125 6.89304687 -2.6515625 6.91109375 -1.828125 6.9296875 C-1.22484375 6.95289062 -0.6215625 6.97609375 0 7 C0 4.69 0 2.38 0 0 Z " fill="#2A7C66" transform="translate(120,72)"/>
<path d="M0 0 C0.33 0 0.66 0 1 0 C1.05416188 1.60379341 1.09286638 3.20811406 1.125 4.8125 C1.14820313 5.70582031 1.17140625 6.59914063 1.1953125 7.51953125 C1 10 1 10 -1 13 C-1.165 14.19625 -1.33 15.3925 -1.5 16.625 C-1.665 17.73875 -1.83 18.8525 -2 20 C-2.66 20.33 -3.32 20.66 -4 21 C-3.39700836 13.76410027 -1.8849413 7.00629124 0 0 Z " fill="#3CB893" transform="translate(160,17)"/>
<path d="M0 0 C2.89932357 2.39509338 3.50168276 4.31245243 4 8 C-1.37305699 8.44041451 -1.37305699 8.44041451 -4 8 C-6 5.5 -6 5.5 -7 3 C-6.01 3.33 -5.02 3.66 -4 4 C-4 4.66 -4 5.32 -4 6 C-2.02 6 -0.04 6 2 6 C1.34 4.02 0.68 2.04 0 0 Z " fill="#39BA93" transform="translate(121,57)"/>
<path d="M0 0 C0.99 0 1.98 0 3 0 C2.67 0.99 2.34 1.98 2 3 C2.7734375 3.61875 2.7734375 3.61875 3.5625 4.25 C4.036875 4.8275 4.51125 5.405 5 6 C4.6875 8.1875 4.6875 8.1875 4 10 C3.01 9.67 2.02 9.34 1 9 C0.67 6.03 0.34 3.06 0 0 Z " fill="#95EFD2" transform="translate(49,77)"/>
<path d="M0 0 C2.78637633 4.1795645 1.79562512 6.14668677 1 11 C-0.65 11.33 -2.3 11.66 -4 12 C-3.34 11.34 -2.68 10.68 -2 10 C-1.83312552 7.41645782 -1.83312552 7.41645782 -2 5 C-2.66 4.67 -3.32 4.34 -4 4 C-3.01 3.67 -2.02 3.34 -1 3 C-0.67 2.01 -0.34 1.02 0 0 Z " fill="#56D6AB" transform="translate(55,76)"/>
<path d="M0 0 C0.33 0.66 0.66 1.32 1 2 C-0.01320313 2.19916016 -0.01320313 2.19916016 -1.046875 2.40234375 C-2.38492188 2.66724609 -2.38492188 2.66724609 -3.75 2.9375 C-4.63171875 3.11152344 -5.5134375 3.28554687 -6.421875 3.46484375 C-8.63235053 3.92368488 -10.81512068 4.43336074 -13 5 C-12 2 -12 2 -9.875 0.8125 C-6.48581699 -0.14531259 -3.50528139 -0.13746202 0 0 Z " fill="#2A7461" transform="translate(117,69)"/>
<path d="M0 0 C1.98 0.99 1.98 0.99 4 2 C3.67 2.33 3.34 2.66 3 3 C3.66 3.33 4.32 3.66 5 4 C4.67 5.32 4.34 6.64 4 8 C2.68 8 1.36 8 0 8 C0 5.36 0 2.72 0 0 Z " fill="#74D7B6" transform="translate(53,59)"/>
<path d="M0 0 C2.475 0.495 2.475 0.495 5 1 C4.67 2.98 4.34 4.96 4 7 C3.01 7 2.02 7 1 7 C0.67 4.69 0.34 2.38 0 0 Z " fill="#DDFCF6" transform="translate(50,52)"/>
<path d="M0 0 C0.33 0 0.66 0 1 0 C1.02689216 1.47906892 1.04634621 2.95827483 1.0625 4.4375 C1.07410156 5.26121094 1.08570313 6.08492187 1.09765625 6.93359375 C1 9 1 9 0 10 C-0.36760731 12.32817964 -0.70241581 14.6618385 -1 17 C-1.66 17 -2.32 17 -3 17 C-2.48517081 11.147205 -1.54642808 5.6702363 0 0 Z " fill="#3EB792" transform="translate(196,21)"/>
<path d="M0 0 C2.52940738 3.13164723 4.44920018 6.27808042 6 10 C5.6875 12.375 5.6875 12.375 5 14 C4.01 12.02 3.02 10.04 2 8 C1.34 8 0.68 8 0 8 C0 5.36 0 2.72 0 0 Z " fill="#2B7C65" transform="translate(182,94)"/>
<path d="M0 0 C3.70270486 5.5540573 4.22186294 9.45504337 4 16 C0.98656045 12.67148232 0.55332456 10.18117187 0.3125 5.75 C0.24675781 4.67234375 0.18101562 3.5946875 0.11328125 2.484375 C0.07589844 1.66453125 0.03851563 0.8446875 0 0 Z " fill="#337967" transform="translate(170,16)"/>
<path d="M0 0 C1.85776765 3.13498292 2.20140476 5.37471432 2 9 C0.35 9.33 -1.3 9.66 -3 10 C-3.33 10.99 -3.66 11.98 -4 13 C-3.67 11.35 -3.34 9.7 -3 8 C-1.68 7.67 -0.36 7.34 1 7 C0.73323796 5.01508358 0.73323796 5.01508358 0 3 C-0.99 2.67 -1.98 2.34 -3 2 C-2.01 2 -1.02 2 0 2 C0 1.34 0 0.68 0 0 Z " fill="#9EECD5" transform="translate(49,53)"/>
<path d="M0 0 C0.99 0.495 0.99 0.495 2 1 C2 1.99 2 2.98 2 4 C2.66 4 3.32 4 4 4 C4 4.99 4 5.98 4 7 C5.65 7 7.3 7 9 7 C9.33 5.68 9.66 4.36 10 3 C10 4.65 10 6.3 10 8 C7.36 8 4.72 8 2 8 C1.34 5.36 0.68 2.72 0 0 Z " fill="#3DBD96" transform="translate(191,112)"/>
<path d="M0 0 C0 1.65 0 3.3 0 5 C-1.65 5.33 -3.3 5.66 -5 6 C-5.33 5.34 -5.66 4.68 -6 4 C-5.67 3.01 -5.34 2.02 -5 1 C-3 0 -3 0 0 0 Z " fill="#66D5B0" transform="translate(51,62)"/>
<path d="M0 0 C0 0.99 0 1.98 0 3 C0.66 3 1.32 3 2 3 C2.33 2.01 2.66 1.02 3 0 C2.67 1.65 2.34 3.3 2 5 C0.68 5 -0.64 5 -2 5 C-2.33 4.01 -2.66 3.02 -3 2 C-3.99 1.34 -4.98 0.68 -6 0 C-2.25 -1.125 -2.25 -1.125 0 0 Z " fill="#53D2A7" transform="translate(57,51)"/>
<path d="M0 0 C2.64 0 5.28 0 8 0 C7.67 0.66 7.34 1.32 7 2 C5.35 2 3.7 2 2 2 C2.33 2.99 2.66 3.98 3 5 C2.01 5.33 1.02 5.66 0 6 C-1.24546405 3.50907189 -0.7767578 2.58919267 0 0 Z " fill="#CFFDF0" transform="translate(60,51)"/>
<path d="M0 0 C0.55171875 0.31710938 1.1034375 0.63421875 1.671875 0.9609375 C4.28477989 2.12709975 6.40579002 2.40045711 9.25 2.625 C10.14203125 2.69976562 11.0340625 2.77453125 11.953125 2.8515625 C12.96632812 2.92503906 12.96632812 2.92503906 14 3 C14 3.33 14 3.66 14 4 C9.38 4 4.76 4 0 4 C0 2.68 0 1.36 0 0 Z " fill="#38B28C" transform="translate(238,109)"/>
<path d="M0 0 C3.33773709 3.64116773 3.97864902 7.28607242 5 12 C4.34 12 3.68 12 3 12 C3 10.35 3 8.7 3 7 C2.34 7 1.68 7 1 7 C0.67 4.69 0.34 2.38 0 0 Z " fill="#2F7564" transform="translate(188,108)"/>
<path d="M0 0 C-3.465 2.97 -3.465 2.97 -7 6 C-7 4.35 -7 2.7 -7 1 C-3.375 -1.125 -3.375 -1.125 0 0 Z " fill="#27715D" transform="translate(104,75)"/>
<path d="M0 0 C2.31 0 4.62 0 7 0 C6.67 0.66 6.34 1.32 6 2 C5.01 2 4.02 2 3 2 C2.34 3.98 1.68 5.96 1 8 C0.67 8 0.34 8 0 8 C0 5.36 0 2.72 0 0 Z " fill="#3BC79C" transform="translate(157,72)"/>
<path d="M0 0 C1.32 0 2.64 0 4 0 C5.75 2 5.75 2 7 4 C5.02 4 3.04 4 1 4 C0.67 2.68 0.34 1.36 0 0 Z " fill="#86E3C4" transform="translate(48,68)"/>
<path d="M0 0 C0 2.31 0 4.62 0 7 C-0.33 6.01 -0.66 5.02 -1 4 C-2.32 4.99 -3.64 5.98 -5 7 C-4.6875 4.625 -4.6875 4.625 -4 2 C-1 0 -1 0 0 0 Z " fill="#36CD9B" transform="translate(81,48)"/>
<path d="M0 0 C2.00993705 2.00993705 2.89940919 3.59211232 4.125 6.125 C4.47820312 6.84945312 4.83140625 7.57390625 5.1953125 8.3203125 C5.46085938 8.87460938 5.72640625 9.42890625 6 10 C2.15625 8.234375 2.15625 8.234375 0.75 6.125 C0 4 0 4 0 0 Z " fill="#338670" transform="translate(227,106)"/>
<path d="M0 0 C0.66 0 1.32 0 2 0 C2.33 2.31 2.66 4.62 3 7 C2.67 6.34 2.34 5.68 2 5 C1.34 5 0.68 5 0 5 C-0.33 5.99 -0.66 6.98 -1 8 C-0.67 5.36 -0.34 2.72 0 0 Z " fill="#2B8B6F" transform="translate(164,37)"/>
<path d="M0 0 C-1.39332574 3.36720387 -2.9789286 4.9859524 -6 7 C-5.37162381 3.35541809 -4.14650034 0 0 0 Z " fill="#3FBB94" transform="translate(236,75)"/>
<path d="M0 0 C1.98 0 3.96 0 6 0 C6 0.66 6 1.32 6 2 C6.66 2.33 7.32 2.66 8 3 C5 4 5 4 2 3 C2 2.34 2 1.68 2 1 C1.34 0.67 0.68 0.34 0 0 Z " fill="#80E4C3" transform="translate(30,54)"/>
<path d="M0 0 C4.8 2.46153846 4.8 2.46153846 5.8125 5.1875 C5.874375 5.785625 5.93625 6.38375 6 7 C5.34 7 4.68 7 4 7 C3.34 6.34 2.68 5.68 2 5 C1.34 5 0.68 5 0 5 C0 3.35 0 1.7 0 0 Z " fill="#316E61" transform="translate(105,49)"/>
<path d="M0 0 C1.98 0 3.96 0 6 0 C6.33 0.99 6.66 1.98 7 3 C5.02 3 3.04 3 1 3 C0.67 2.01 0.34 1.02 0 0 Z " fill="#A8EAD4" transform="translate(28,51)"/>
</svg>
